<svg width="540" height="540" viewBox="0 0 540 540" fill="none" xmlns="http://www.w3.org/2000/svg">
<path d="M112.21 540L213.179 0H277.481L377.918 540H329.559L304.051 396.493H186.609L161.101 540H112.21ZM196.174 340.274H293.955L264.195 173.836C258.527 142.274 254.098 115.89 250.91 94.6849C247.721 73.4794 245.773 59.6712 245.064 53.2603C244.356 59.6712 242.407 73.4794 239.219 94.6849C236.03 115.89 231.602 142.027 225.933 173.096L196.174 340.274Z" fill="black"/>
<path d="M374.198 540L274.292 0H323.714L389.609 366.904C394.215 392.548 398.112 416.466 401.301 438.658C404.489 460.356 406.792 476.877 408.209 488.219C409.626 476.877 411.752 460.356 414.586 438.658C417.774 416.466 421.671 392.548 426.277 366.904L491.641 0H540L439.562 540H374.198Z" fill="black"/>
<path d="M99.9061 540L0 0H49.4217L115.317 366.904C119.923 392.548 123.82 416.466 127.008 438.658C130.197 460.356 132.5 476.877 133.917 488.219C135.334 476.877 137.46 460.356 140.294 438.658C143.482 416.466 147.379 392.548 151.985 366.904L217.349 0H265.708L165.27 540H99.9061Z" fill="black"/>
</svg>